<svg viewBox="0 0 643.215 86.574" xmlns="http://www.w3.org/2000/svg" xmlns:xlink="http://www.w3.org/1999/xlink" xmlns:inkscape="http://www.inkscape.org/namespaces/inkscape" version="1.1">
<defs>
<clipPath id="clip_1">
<path transform="matrix(1,0,0,-1,-75.5206,174.48761)" d="M75.5206 87.9138H718.73538V174.48761H75.5206Z" clip-rule="evenodd"/>
</clipPath>
<clipPath id="clip_2">
<path transform="matrix(1,0,0,-1,-75.5206,174.48761)" d="M0 256H792V0H0Z"/>
</clipPath>
</defs>
<g clip-path="url(#clip_1)">
<g inkscape:groupmode="layer" inkscape:label="Capa 1">
<g clip-path="url(#clip_2)">
<path transform="matrix(1,0,0,-1,137.6255,67.98571)" d="M0 0C-2.969-1.352-6.388-2.03-10.257-2.03-13.784-2.03-17.042-1.45-20.028-.289-23.019 .871-25.607 2.517-27.801 4.644-29.994 6.772-31.714 9.321-32.961 12.287-34.208 15.254-34.832 18.521-34.832 22.092-34.832 25.746-34.196 29.058-32.929 32.024-31.66 34.991-29.906 37.517-27.671 39.604-25.436 41.69-22.814 43.289-19.803 44.409-16.792 45.527-13.544 46.085-10.062 46.085-6.838 46.085-3.669 45.515-.548 44.378 2.568 43.238 5.094 41.57 7.029 39.379L-.452 31.897C-1.485 33.316-2.839 34.367-4.515 35.057-6.193 35.744-7.914 36.089-9.675 36.089-11.612 36.089-13.385 35.734-14.997 35.025-16.611 34.313-17.996 33.335-19.157 32.09-20.319 30.841-21.222 29.368-21.867 27.671-22.51 25.971-22.833 24.112-22.833 22.092-22.833 20.028-22.51 18.135-21.867 16.416-21.222 14.696-20.329 13.224-19.189 11.999-18.049 10.773-16.685 9.815-15.095 9.127-13.505 8.44-11.764 8.095-9.871 8.095-7.677 8.095-5.765 8.526-4.128 9.387-2.495 10.245-1.184 11.363-.196 12.74L7.479 5.515C5.459 3.194 2.964 1.355 0 0" fill="#0d2e6e"/>
<path transform="matrix(1,0,0,-1,182.0643,45.763917)" d="M0 0C0 1.976-.323 3.825-.969 5.547-1.612 7.266-2.504 8.739-3.644 9.964-4.784 11.189-6.158 12.158-7.773 12.867-9.384 13.576-11.157 13.931-13.094 13.931-15.027 13.931-16.792 13.576-18.382 12.867-19.972 12.158-21.349 11.189-22.51 9.964-23.67 8.739-24.565 7.266-25.186 5.547-25.81 3.825-26.12 1.976-26.12 0-26.12-2.064-25.797-3.967-25.154-5.708-24.509-7.45-23.616-8.944-22.476-10.191-21.339-11.439-19.972-12.417-18.382-13.126-16.792-13.835-15.027-14.19-13.094-14.19-11.157-14.19-9.396-13.835-7.802-13.126-6.212-12.417-4.838-11.439-3.676-10.191-2.514-8.944-1.612-7.45-.969-5.708-.323-3.967 0-2.064 0 0M11.803 0C11.803-3.612 11.182-6.914 9.935-9.9 8.687-12.891 6.956-15.45 4.74-17.577 2.526-19.705-.108-21.351-3.16-22.51-6.212-23.672-9.524-24.252-13.094-24.252-16.663-24.252-19.962-23.672-22.995-22.51-26.025-21.351-28.649-19.705-30.863-17.577-33.076-15.45-34.808-12.891-36.055-9.9-37.302-6.914-37.923-3.612-37.923 0-37.923 3.654-37.302 6.953-36.055 9.9-34.808 12.845-33.076 15.349-30.863 17.414-28.649 19.478-26.025 21.067-22.995 22.188-19.962 23.305-16.663 23.863-13.094 23.863-9.524 23.863-6.212 23.305-3.16 22.188-.108 21.067 2.526 19.478 4.74 17.414 6.956 15.349 8.687 12.845 9.935 9.9 11.182 6.953 11.803 3.654 11.803 0" fill="#0d2e6e"/>
<path transform="matrix(1,0,0,-1,226.5484,68.79041)" d="M0 0-18.382 29.862H-18.578L-18.318 0H-29.026V45.664H-16.447L1.869 15.865H2.064L1.805 45.664H12.512V0Z" fill="#0d2e6e"/>
<path transform="matrix(1,0,0,-1,267.3959,32.542314)" d="M0 0V-36.248H-11.028V0H-23.929V9.416H12.901V0Z" fill="#0d2e6e"/>
<path transform="matrix(1,0,0,-1,297.3026,35.31581)" d="M0 0-5.806-15.672H5.677ZM12.255-33.475 8.707-24.509H-8.966L-12.319-33.475H-24.315L-5.16 12.189H5.547L24.511-33.475Z" fill="#0d2e6e"/>
<path transform="matrix(1,0,0,-1,-75.5206,174.48761)" d="M399.815 151.361H410.909V105.69699H399.815Z" fill="#0d2e6e"/>
<path transform="matrix(1,0,0,-1,371.0538,68.79041)" d="M0 0-18.382 29.862H-18.573L-18.316 0H-29.023V45.664H-16.445L1.873 15.865H2.064L1.807 45.664H12.515V0Z" fill="#0d2e6e"/>
<path transform="matrix(1,0,0,-1,390.2111,68.79041)" d="M0 0V45.664H30.701V36.378H10.641V27.734H29.605V18.898H10.641V9.416H31.863V0Z" fill="#0d2e6e"/>
<path transform="matrix(1,0,0,-1,452.43418,37.120714)" d="M0 0C0 1.074-.23 1.944-.682 2.612-1.135 3.277-1.719 3.793-2.431 4.16-3.145 4.525-3.943 4.772-4.83 4.901-5.716 5.031-6.569 5.094-7.391 5.094H-13.288V-5.547H-8.037C-7.132-5.547-6.202-5.474-5.251-5.322-4.3-5.173-3.436-4.904-2.659-4.515-1.881-4.128-1.242-3.571-.746-2.839-.249-2.108 0-1.162 0 0M.45-31.67-9.465-13.547H-13.222V-31.67H-23.995V13.994H-6.579C-4.388 13.994-2.248 13.769-.161 13.317 1.922 12.867 3.793 12.101 5.449 11.028 7.105 9.954 8.428 8.533 9.416 6.772 10.404 5.009 10.898 2.815 10.898 .193 10.898-2.903 10.062-5.505 8.384-7.611 6.706-9.719 4.385-11.223 1.419-12.126L13.351-31.67Z" fill="#0d2e6e"/>
<path transform="matrix(1,0,0,-1,514.1715,67.98571)" d="M0 0C-2.967-1.352-6.386-2.03-10.255-2.03-13.782-2.03-17.039-1.45-20.026-.289-23.017 .871-25.607 2.517-27.798 4.644-29.992 6.772-31.711 9.321-32.958 12.287-34.206 15.254-34.829 18.521-34.829 22.092-34.829 25.746-34.196 29.058-32.927 32.024-31.657 34.991-29.906 37.517-27.671 39.604-25.435 41.69-22.811 43.289-19.801 44.409-16.792 45.527-13.544 46.085-10.062 46.085-6.838 46.085-3.666 45.515-.548 44.378 2.568 43.238 5.097 41.57 7.029 39.379L-.45 31.897C-1.482 33.316-2.837 34.367-4.515 35.057-6.193 35.744-7.912 36.089-9.675 36.089-11.61 36.089-13.383 35.734-14.997 35.025-16.609 34.313-17.996 33.335-19.155 32.09-20.319 30.841-21.219 29.368-21.865 27.671-22.51 25.971-22.833 24.112-22.833 22.092-22.833 20.028-22.51 18.135-21.865 16.416-21.219 14.696-20.329 13.224-19.189 11.999-18.049 10.773-16.685 9.815-15.093 9.127-13.503 8.44-11.761 8.095-9.868 8.095-7.675 8.095-5.762 8.526-4.128 9.387-2.495 10.245-1.184 11.363-.193 12.74L7.482 5.515C5.459 3.194 2.967 1.355 0 0" fill="#0d2e6e"/>
<path transform="matrix(1,0,0,-1,544.96878,35.31581)" d="M0 0-5.806-15.672H5.674ZM12.253-33.475 8.707-24.509H-8.966L-12.322-33.475H-24.315L-5.161 12.189H5.547L24.509-33.475Z" fill="#0d2e6e"/>
<path transform="matrix(1,0,0,-1,595.3544,37.120714)" d="M0 0C0 1.074-.227 1.944-.682 2.612-1.135 3.277-1.719 3.793-2.429 4.16-3.143 4.525-3.943 4.772-4.83 4.901-5.716 5.031-6.567 5.094-7.389 5.094H-13.288V-5.547H-8.037C-7.129-5.547-6.2-5.474-5.251-5.322-4.297-5.173-3.436-4.904-2.659-4.515-1.881-4.128-1.242-3.571-.746-2.839-.247-2.108 0-1.162 0 0M.452-31.67-9.463-13.547H-13.222V-31.67H-23.995V13.994H-6.579C-4.385 13.994-2.248 13.769-.159 13.317 1.925 12.867 3.793 12.101 5.451 11.028 7.105 9.954 8.428 8.533 9.418 6.772 10.406 5.009 10.901 2.815 10.901 .193 10.901-2.903 10.064-5.505 8.386-7.611 6.709-9.719 4.385-11.223 1.421-12.126L13.351-31.67Z" fill="#0d2e6e"/>
<path transform="matrix(1,0,0,-1,611.3518,68.79041)" d="M0 0V45.664H30.701V36.378H10.641V27.734H29.603V18.898H10.641V9.416H31.863V0Z" fill="#0d2e6e"/>
<path transform="matrix(1,0,0,-1,39.645006,86.54981)" d="M0 0-39.594-.024-39.645 86.5 17.136 86.517 17.147 69.366-22.778 69.419-22.747 16.907-.03 16.875Z" fill="#0d2e6e"/>
<path transform="matrix(1,0,0,-1,56.817598,60.53981)" d="M0 0-30.766 .043-30.787 34.238-.02 34.196 .042 21.617-17.176 21.538-17.154 12.91-.008 12.839Z" fill="#0d2e6e"/>
<path transform="matrix(1,0,0,-1,65.925098,.010009766)" d="M0 0 .056-69.701-17.089-69.677-17.116-86.534 17.285-86.547 17.237 .01Z" fill="#0f9bdf"/>
</g>
</g>
</g>
</svg>
