<svg viewBox="0 0 187.562 49.612" xmlns="http://www.w3.org/2000/svg" xmlns:xlink="http://www.w3.org/1999/xlink" xmlns:inkscape="http://www.inkscape.org/namespaces/inkscape" version="1.1">
<defs>
<clipPath id="clip_1">
<path transform="matrix(1,0,0,-1,-37.3844,87.2812)" d="M37.3844 37.6689H224.9462V87.2812H37.3844Z" clip-rule="evenodd"/>
</clipPath>
<clipPath id="clip_2">
<path transform="matrix(1,0,0,-1,-37.3844,87.2812)" d="M0 124.95H576.35V0H0Z"/>
</clipPath>
<clipPath id="clip_3">
<path transform="matrix(1,0,0,-1,-37.3844,87.2812)" d="M0 124.95H576.35V0H0Z"/>
</clipPath>
</defs>
<g clip-path="url(#clip_1)">
<g inkscape:groupmode="layer" inkscape:label="MASTER">
<path transform="matrix(1,0,0,-1,52.785905,15.888496)" d="M0 0V4.486H-4.303V0H-6.896V11.184H-4.303V6.805H0V11.184H2.594V0Z" fill="#002e6d"/>
<g clip-path="url(#clip_2)">
<path transform="matrix(1,0,0,-1,67.0213,11.341698)" d="M0 0C0-1.556-.422-2.734-1.267-3.532-2.111-4.331-3.286-4.73-4.791-4.73-6.307-4.73-7.466-4.333-8.27-3.54-9.073-2.746-9.475-1.566-9.475 0V6.637H-6.881V.183C-6.881-.61-6.708-1.233-6.362-1.686-6.017-2.139-5.472-2.365-4.73-2.365-3.998-2.365-3.459-2.139-3.113-1.686-2.767-1.233-2.594-.61-2.594 .183V6.637H0Z" fill="#002e6d"/>
<path transform="matrix(1,0,0,-1,74.4209,7.084793)" d="M0 0V-8.804H-2.594V0H-5.951V2.38H3.357V0Z" fill="#002e6d"/>
<path transform="matrix(1,0,0,-1,88.1829,15.033997)" d="M0 0C-.488-.326-1.05-.58-1.686-.763-2.322-.946-2.96-1.038-3.601-1.038-4.516-1.038-5.348-.893-6.095-.603-6.843-.313-7.486 .089-8.025 .603-8.565 1.116-8.982 1.727-9.277 2.434-9.572 3.14-9.719 3.906-9.719 4.73-9.719 5.564-9.572 6.334-9.277 7.041-8.982 7.748-8.565 8.359-8.025 8.872-7.486 9.386-6.843 9.788-6.095 10.078-5.348 10.367-4.516 10.512-3.601 10.512-2.95 10.512-2.332 10.423-1.747 10.245-1.162 10.067-.615 9.831-.107 9.536L-.9 7.339C-1.317 7.573-1.752 7.756-2.205 7.888-2.657 8.02-3.112 8.087-3.57 8.087-4.089 8.087-4.56 8.01-4.981 7.858-5.404 7.705-5.76 7.484-6.05 7.194-6.339 6.904-6.563 6.551-6.721 6.134-6.879 5.716-6.957 5.249-6.957 4.73-6.957 4.211-6.879 3.746-6.721 3.334-6.563 2.922-6.339 2.571-6.05 2.281-5.76 1.991-5.404 1.767-4.981 1.61-4.56 1.452-4.089 1.373-3.57 1.373-3.112 1.373-2.639 1.444-2.151 1.587-1.663 1.729-1.205 1.932-.778 2.197Z" fill="#002e6d"/>
<path transform="matrix(1,0,0,-1,97.093509,15.888496)" d="M0 0V4.486H-4.303V0H-6.896V11.184H-4.303V6.805H0V11.184H2.594V0Z" fill="#002e6d"/>
<path transform="matrix(1,0,0,-1,-37.3844,87.2812)" d="M139.803 82.577H142.39699V71.393009H139.803Z" fill="#002e6d"/>
<path transform="matrix(1,0,0,-1,114.7464,12.592796)" d="M0 0C0-.448-.082-.88-.244-1.297-.407-1.714-.654-2.085-.984-2.411-1.315-2.736-1.729-2.996-2.228-3.189-2.726-3.382-3.311-3.479-3.982-3.479-4.298-3.479-4.626-3.448-4.966-3.387-5.307-3.326-5.643-3.245-5.973-3.143-6.304-3.041-6.622-2.922-6.927-2.785-7.232-2.647-7.507-2.497-7.751-2.334L-7.034 .015C-6.576-.31-6.073-.572-5.523-.771-4.974-.969-4.435-1.068-3.906-1.068-3.448-1.068-3.123-.974-2.929-.786-2.736-.598-2.64-.366-2.64-.092-2.64 .051-2.663 .185-2.708 .313-2.754 .44-2.851 .57-2.998 .702-3.146 .834-3.349 .969-3.609 1.106-3.868 1.243-4.211 1.398-4.638 1.572-5.127 1.775-5.541 1.996-5.882 2.235-6.223 2.474-6.498 2.731-6.706 3.006-6.914 3.28-7.064 3.573-7.156 3.883-7.247 4.193-7.293 4.516-7.293 4.852-7.293 5.259-7.209 5.655-7.041 6.042-6.873 6.428-6.627 6.772-6.301 7.072-5.976 7.372-5.567 7.614-5.073 7.797-4.58 7.98-4.008 8.071-3.357 8.071-3.052 8.071-2.749 8.046-2.449 7.995-2.149 7.944-1.861 7.878-1.587 7.797-1.312 7.715-1.058 7.624-.824 7.522-.59 7.42-.392 7.313-.229 7.202L-.885 4.882C-1.048 4.994-1.231 5.104-1.434 5.21-1.638 5.317-1.849 5.414-2.067 5.5-2.286 5.587-2.505 5.658-2.724 5.714-2.943 5.77-3.153 5.798-3.357 5.798-3.835 5.798-4.176 5.706-4.379 5.523-4.583 5.34-4.684 5.132-4.684 4.898-4.684 4.715-4.649 4.557-4.577 4.425-4.506 4.292-4.389 4.17-4.226 4.059-4.064 3.946-3.858 3.835-3.609 3.723-3.359 3.611-3.062 3.479-2.716 3.326-2.197 3.102-1.762 2.871-1.411 2.632-1.06 2.393-.781 2.138-.572 1.869-.364 1.599-.216 1.31-.13 .999-.043 .689 0 .356 0 0" fill="#002e6d"/>
<path transform="matrix(1,0,0,-1,124.9232,10.304199)" d="M0 0C0 .508-.071 .974-.214 1.396-.356 1.818-.557 2.182-.816 2.487-1.076 2.792-1.386 3.031-1.747 3.204-2.108 3.377-2.513 3.463-2.96 3.463-3.398 3.463-3.799 3.377-4.165 3.204-4.532 3.031-4.844 2.792-5.104 2.487-5.363 2.182-5.564 1.818-5.706 1.396-5.849 .974-5.92 .508-5.92 0-5.92-.499-5.849-.959-5.706-1.381-5.564-1.803-5.363-2.169-5.104-2.479-4.844-2.79-4.532-3.031-4.165-3.204-3.799-3.377-3.398-3.463-2.96-3.463-2.513-3.463-2.108-3.377-1.747-3.204-1.386-3.031-1.076-2.79-.816-2.479-.557-2.169-.356-1.803-.214-1.381-.071-.959 0-.499 0 0M2.777 0C2.777-.824 2.637-1.587 2.357-2.289 2.077-2.99 1.683-3.598 1.175-4.112 .666-4.626 .058-5.03-.648-5.325-1.356-5.62-2.142-5.767-3.006-5.767-3.871-5.767-4.654-5.62-5.356-5.325-6.057-5.03-6.655-4.626-7.148-4.112-7.642-3.598-8.021-2.99-8.285-2.289-8.549-1.587-8.682-.824-8.682 0-8.682 .824-8.542 1.589-8.262 2.296-7.983 3.003-7.591 3.613-7.087 4.127-6.584 4.641-5.976 5.045-5.264 5.34-4.552 5.635-3.764 5.783-2.899 5.783-2.035 5.783-1.254 5.635-.557 5.34 .139 5.045 .735 4.641 1.228 4.127 1.721 3.613 2.103 3.003 2.372 2.296 2.642 1.589 2.777 .824 2.777 0" fill="#002e6d"/>
<path transform="matrix(1,0,0,-1,139.0055,16.102097)" d="M0 0-6.744 6.057V.214H-9.337V11.55L-8.987 11.611-2.334 5.6V11.397H.259V.046Z" fill="#002e6d"/>
<path transform="matrix(1,0,0,-1,148.1512,8.274796)" d="M0 0C0 .325-.059 .643-.176 .954-.293 1.264-.471 1.536-.71 1.77-.949 2.004-1.244 2.192-1.594 2.335-1.946 2.477-2.35 2.548-2.808 2.548-3.072 2.548-3.342 2.54-3.616 2.525-3.891 2.51-4.13 2.477-4.333 2.426V-2.563C-4.14-2.584-3.921-2.604-3.677-2.624-3.433-2.645-3.204-2.655-2.991-2.655-2.472-2.655-2.024-2.584-1.648-2.441-1.272-2.299-.962-2.108-.717-1.869-.473-1.63-.293-1.35-.176-1.03-.059-.709 0-.366 0 0M1.312 .092C1.312-.468 1.213-.982 1.015-1.449 .816-1.917 .528-2.319 .153-2.655-.224-2.991-.682-3.253-1.221-3.441-1.76-3.629-2.375-3.723-3.067-3.723-3.26-3.723-3.471-3.718-3.7-3.708-3.929-3.698-4.14-3.682-4.333-3.662V-7.614H-5.554V3.464C-5.137 3.514-4.72 3.558-4.303 3.593-3.886 3.629-3.448 3.647-2.991 3.647-2.269 3.647-1.638 3.55-1.099 3.357-.56 3.163-.112 2.904 .244 2.579 .6 2.253 .867 1.877 1.045 1.45 1.223 1.022 1.312 .57 1.312 .092" fill="#002e6d"/>
<path transform="matrix(1,0,0,-1,160.4487,10.303993)" d="M0 0C0 .661-.104 1.276-.313 1.846-.521 2.416-.814 2.912-1.19 3.334-1.567 3.756-2.014 4.087-2.533 4.326-3.052 4.564-3.621 4.684-4.242 4.684-4.862 4.684-5.434 4.564-5.958 4.326-6.482 4.087-6.932 3.756-7.308 3.334-7.685 2.912-7.978 2.416-8.186 1.846-8.394 1.276-8.499 .661-8.499 0-8.499-.661-8.394-1.277-8.186-1.846-7.978-2.416-7.685-2.912-7.308-3.334-6.932-3.756-6.482-4.087-5.958-4.326-5.434-4.565-4.862-4.684-4.242-4.684-3.621-4.684-3.052-4.565-2.533-4.326-2.014-4.087-1.567-3.756-1.19-3.334-.814-2.912-.521-2.416-.313-1.846-.104-1.277 0-.661 0 0M1.328 0C1.328-.834 1.175-1.605 .87-2.312 .565-3.019 .155-3.629-.358-4.143-.872-4.656-1.47-5.056-2.151-5.34-2.833-5.625-3.55-5.768-4.303-5.768-5.056-5.768-5.768-5.625-6.439-5.34-7.11-5.056-7.698-4.656-8.201-4.143-8.704-3.629-9.101-3.019-9.391-2.312-9.681-1.605-9.826-.834-9.826 0-9.826 .844-9.673 1.62-9.368 2.327-9.063 3.034-8.654 3.641-8.14 4.15-7.626 4.659-7.029 5.058-6.347 5.348-5.666 5.638-4.949 5.783-4.196 5.783-3.443 5.783-2.731 5.638-2.06 5.348-1.388 5.058-.801 4.659-.298 4.15 .206 3.641 .603 3.034 .893 2.327 1.183 1.62 1.328 .844 1.328 0" fill="#002e6d"/>
<path transform="matrix(1,0,0,-1,169.222,8.061096)" d="M0 0C0 .325-.061 .631-.183 .915-.305 1.2-.483 1.447-.717 1.656-.951 1.864-1.244 2.029-1.594 2.151-1.945 2.273-2.35 2.335-2.807 2.335-3.072 2.335-3.344 2.327-3.624 2.312-3.904 2.296-4.145 2.263-4.349 2.212V-2.334C-4.165-2.355-3.947-2.373-3.692-2.388-3.438-2.403-3.204-2.411-2.991-2.411-1.943-2.411-1.183-2.192-.71-1.755-.236-1.317 0-.732 0 0M.641-7.827-2.334-3.418C-2.456-3.428-2.579-3.436-2.701-3.441-2.823-3.446-2.95-3.448-3.082-3.448-3.265-3.448-3.477-3.446-3.715-3.441-3.955-3.436-4.165-3.428-4.349-3.418V-7.827H-5.569V3.25C-5.152 3.301-4.735 3.344-4.318 3.38-3.901 3.415-3.459 3.433-2.991 3.433-2.268 3.433-1.638 3.349-1.099 3.181-.559 3.013-.112 2.779 .244 2.479 .6 2.179 .867 1.823 1.045 1.411 1.223 .999 1.312 .554 1.312 .076 1.312-.707 1.103-1.378 .687-1.938 .269-2.497-.336-2.904-1.129-3.158L2.121-7.827Z" fill="#002e6d"/>
<path transform="matrix(1,0,0,-1,176.5763,5.8028948)" d="M0 0V-10.086H-1.221V0H-4.959V1.099H3.723V0Z" fill="#002e6d"/>
<path transform="matrix(1,0,0,-1,187.5618,12.8673939)" d="M0 0C0-.458-.086-.88-.259-1.266-.432-1.653-.671-1.991-.977-2.281-1.282-2.571-1.643-2.797-2.06-2.96-2.477-3.123-2.929-3.204-3.418-3.204-4.059-3.204-4.636-3.113-5.15-2.93-5.663-2.746-6.164-2.492-6.652-2.167L-6.057-1.099C-5.63-1.404-5.183-1.645-4.715-1.823-4.247-2.001-3.794-2.09-3.357-2.09-3.001-2.09-2.691-2.037-2.426-1.93-2.162-1.823-1.943-1.678-1.77-1.495-1.597-1.312-1.467-1.104-1.381-.87-1.295-.636-1.251-.392-1.251-.137-1.251 .107-1.282 .33-1.343 .534-1.404 .737-1.513 .931-1.671 1.114-1.828 1.297-2.052 1.477-2.342 1.655-2.632 1.833-3.006 2.024-3.464 2.228-3.952 2.441-4.364 2.657-4.699 2.876-5.035 3.095-5.308 3.329-5.516 3.578-5.724 3.827-5.877 4.092-5.974 4.371-6.07 4.651-6.118 4.959-6.118 5.295-6.118 5.701-6.037 6.088-5.874 6.454-5.712 6.82-5.48 7.143-5.18 7.423-4.88 7.703-4.519 7.927-4.097 8.094-3.675 8.262-3.209 8.346-2.701 8.346-2.223 8.346-1.77 8.275-1.343 8.132-.916 7.99-.539 7.807-.214 7.583L-.763 6.546C-1.037 6.749-1.351 6.914-1.701 7.042-2.052 7.169-2.411 7.232-2.777 7.232-3.123 7.232-3.431 7.181-3.7 7.08-3.97 6.978-4.191 6.843-4.364 6.675-4.537 6.508-4.669 6.309-4.76 6.08-4.852 5.851-4.898 5.61-4.898 5.356-4.898 4.969-4.753 4.613-4.463 4.287-4.173 3.962-3.682 3.641-2.991 3.326-2.411 3.062-1.928 2.81-1.541 2.571-1.155 2.332-.847 2.085-.618 1.831-.389 1.577-.229 1.302-.137 1.007-.046 .712 0 .376 0 0" fill="#002e6d"/>
<path transform="matrix(1,0,0,-1,37.669,16.588295)" d="M0 0-37.669-22.065V-33.024H0Z" fill="#002e6d"/>
<path transform="matrix(1,0,0,-1,37.669,0)" d="M0 0H-37.669V-28.605L0-6.54Z" fill="#009bde"/>
</g>
</g>
<g inkscape:groupmode="layer" inkscape:label="BU">
<path transform="matrix(1,0,0,-1,45.9208,44.164098)" d="M0 0V20.138H12.748V15.852H4.67V12.253H12.033V8.187H4.67V4.259H12.748V0Z" fill="#002e6d"/>
<g clip-path="url(#clip_3)">
<path transform="matrix(1,0,0,-1,78.9154,42.625997)" d="M0 0C-.879-.586-1.891-1.044-3.036-1.373-4.181-1.703-5.33-1.868-6.483-1.868-8.132-1.868-9.629-1.606-10.976-1.085-12.322-.562-13.48 .16-14.451 1.086-15.422 2.01-16.172 3.109-16.704 4.383-17.235 5.655-17.5 7.033-17.5 8.517-17.5 10.019-17.235 11.406-16.704 12.68-16.172 13.952-15.422 15.051-14.451 15.976-13.48 16.901-12.322 17.625-10.976 18.146-9.629 18.668-8.132 18.929-6.483 18.929-5.312 18.929-4.199 18.769-3.146 18.449-2.093 18.128-1.108 17.702-.192 17.171L-1.621 13.215C-2.372 13.636-3.155 13.966-3.97 14.204-4.785 14.441-5.604 14.562-6.429 14.562-7.363 14.562-8.21 14.424-8.97 14.149-9.73 13.874-10.371 13.476-10.893 12.954-11.415 12.432-11.818 11.795-12.102 11.045-12.386 10.293-12.528 9.451-12.528 8.517-12.528 7.583-12.386 6.745-12.102 6.003-11.818 5.262-11.415 4.63-10.893 4.107-10.371 3.586-9.73 3.183-8.97 2.898-8.21 2.614-7.363 2.473-6.429 2.473-5.604 2.473-4.753 2.601-3.874 2.857-2.995 3.114-2.17 3.48-1.401 3.956Z" fill="#002e6d"/>
<path transform="matrix(1,0,0,-1,90.6463,44.329099)" d="M0 0H-.549L-10.165 20.303H-4.808L-.22 9.424 4.368 20.303H9.616Z" fill="#002e6d"/>
</g>
</g>
</g>
</svg>
