<svg viewBox="0 0 357.872 49.612" xmlns="http://www.w3.org/2000/svg" xmlns:xlink="http://www.w3.org/1999/xlink" xmlns:inkscape="http://www.inkscape.org/namespaces/inkscape" version="1.1">
<defs>
<clipPath id="clip_1">
<path transform="matrix(1,0,0,-1,-37.3844,87.2812)" d="M37.3844 37.6689H395.2568V87.2812H37.3844Z" clip-rule="evenodd"/>
</clipPath>
<clipPath id="clip_2">
<path transform="matrix(1,0,0,-1,-37.3844,87.2812)" d="M0 124.95H576.35V0H0Z"/>
</clipPath>
<clipPath id="clip_3">
<path transform="matrix(1,0,0,-1,-37.3844,87.2812)" d="M0 124.95H576.35V0H0Z"/>
</clipPath>
</defs>
<g clip-path="url(#clip_1)">
<g inkscape:groupmode="layer" inkscape:label="MASTER">
<path transform="matrix(1,0,0,-1,52.785905,15.888496)" d="M0 0V4.486H-4.303V0H-6.896V11.184H-4.303V6.805H0V11.184H2.594V0Z" fill="#013770"/>
<g clip-path="url(#clip_2)">
<path transform="matrix(1,0,0,-1,67.0213,11.341698)" d="M0 0C0-1.556-.422-2.734-1.267-3.532-2.111-4.331-3.286-4.73-4.791-4.73-6.307-4.73-7.466-4.333-8.27-3.54-9.073-2.746-9.475-1.566-9.475 0V6.637H-6.881V.183C-6.881-.61-6.708-1.233-6.362-1.686-6.017-2.139-5.472-2.365-4.73-2.365-3.998-2.365-3.459-2.139-3.113-1.686-2.767-1.233-2.594-.61-2.594 .183V6.637H0Z" fill="#013770"/>
<path transform="matrix(1,0,0,-1,74.4209,7.084793)" d="M0 0V-8.804H-2.594V0H-5.951V2.38H3.357V0Z" fill="#013770"/>
<path transform="matrix(1,0,0,-1,88.1829,15.033997)" d="M0 0C-.488-.326-1.05-.58-1.686-.763-2.322-.946-2.96-1.038-3.601-1.038-4.516-1.038-5.348-.893-6.095-.603-6.843-.313-7.486 .089-8.025 .603-8.565 1.116-8.982 1.727-9.277 2.434-9.572 3.14-9.719 3.906-9.719 4.73-9.719 5.564-9.572 6.334-9.277 7.041-8.982 7.748-8.565 8.359-8.025 8.872-7.486 9.386-6.843 9.788-6.095 10.078-5.348 10.367-4.516 10.512-3.601 10.512-2.95 10.512-2.332 10.423-1.747 10.245-1.162 10.067-.615 9.831-.107 9.536L-.9 7.339C-1.317 7.573-1.752 7.756-2.205 7.888-2.657 8.02-3.112 8.087-3.57 8.087-4.089 8.087-4.56 8.01-4.981 7.858-5.404 7.705-5.76 7.484-6.05 7.194-6.339 6.904-6.563 6.551-6.721 6.134-6.879 5.716-6.957 5.249-6.957 4.73-6.957 4.211-6.879 3.746-6.721 3.334-6.563 2.922-6.339 2.571-6.05 2.281-5.76 1.991-5.404 1.767-4.981 1.61-4.56 1.452-4.089 1.373-3.57 1.373-3.112 1.373-2.639 1.444-2.151 1.587-1.663 1.729-1.205 1.932-.778 2.197Z" fill="#013770"/>
<path transform="matrix(1,0,0,-1,97.093509,15.888496)" d="M0 0V4.486H-4.303V0H-6.896V11.184H-4.303V6.805H0V11.184H2.594V0Z" fill="#013770"/>
<path transform="matrix(1,0,0,-1,-37.3844,87.2812)" d="M139.803 82.577H142.39699V71.393009H139.803Z" fill="#013770"/>
<path transform="matrix(1,0,0,-1,114.7464,12.592796)" d="M0 0C0-.448-.082-.88-.244-1.297-.407-1.714-.654-2.085-.984-2.411-1.315-2.736-1.729-2.996-2.228-3.189-2.726-3.382-3.311-3.479-3.982-3.479-4.298-3.479-4.626-3.448-4.966-3.387-5.307-3.326-5.643-3.245-5.973-3.143-6.304-3.041-6.622-2.922-6.927-2.785-7.232-2.647-7.507-2.497-7.751-2.334L-7.034 .015C-6.576-.31-6.073-.572-5.523-.771-4.974-.969-4.435-1.068-3.906-1.068-3.448-1.068-3.123-.974-2.929-.786-2.736-.598-2.64-.366-2.64-.092-2.64 .051-2.663 .185-2.708 .313-2.754 .44-2.851 .57-2.998 .702-3.146 .834-3.349 .969-3.609 1.106-3.868 1.243-4.211 1.398-4.638 1.572-5.127 1.775-5.541 1.996-5.882 2.235-6.223 2.474-6.498 2.731-6.706 3.006-6.914 3.28-7.064 3.573-7.156 3.883-7.247 4.193-7.293 4.516-7.293 4.852-7.293 5.259-7.209 5.655-7.041 6.042-6.873 6.428-6.627 6.772-6.301 7.072-5.976 7.372-5.567 7.614-5.073 7.797-4.58 7.98-4.008 8.071-3.357 8.071-3.052 8.071-2.749 8.046-2.449 7.995-2.149 7.944-1.861 7.878-1.587 7.797-1.312 7.715-1.058 7.624-.824 7.522-.59 7.42-.392 7.313-.229 7.202L-.885 4.882C-1.048 4.994-1.231 5.104-1.434 5.21-1.638 5.317-1.849 5.414-2.067 5.5-2.286 5.587-2.505 5.658-2.724 5.714-2.943 5.77-3.153 5.798-3.357 5.798-3.835 5.798-4.176 5.706-4.379 5.523-4.583 5.34-4.684 5.132-4.684 4.898-4.684 4.715-4.649 4.557-4.577 4.425-4.506 4.292-4.389 4.17-4.226 4.059-4.064 3.946-3.858 3.835-3.609 3.723-3.359 3.611-3.062 3.479-2.716 3.326-2.197 3.102-1.762 2.871-1.411 2.632-1.06 2.393-.781 2.138-.572 1.869-.364 1.599-.216 1.31-.13 .999-.043 .689 0 .356 0 0" fill="#013770"/>
<path transform="matrix(1,0,0,-1,124.9232,10.304199)" d="M0 0C0 .508-.071 .974-.214 1.396-.356 1.818-.557 2.182-.816 2.487-1.076 2.792-1.386 3.031-1.747 3.204-2.108 3.377-2.513 3.463-2.96 3.463-3.398 3.463-3.799 3.377-4.165 3.204-4.532 3.031-4.844 2.792-5.104 2.487-5.363 2.182-5.564 1.818-5.706 1.396-5.849 .974-5.92 .508-5.92 0-5.92-.499-5.849-.959-5.706-1.381-5.564-1.803-5.363-2.169-5.104-2.479-4.844-2.79-4.532-3.031-4.165-3.204-3.799-3.377-3.398-3.463-2.96-3.463-2.513-3.463-2.108-3.377-1.747-3.204-1.386-3.031-1.076-2.79-.816-2.479-.557-2.169-.356-1.803-.214-1.381-.071-.959 0-.499 0 0M2.777 0C2.777-.824 2.637-1.587 2.357-2.289 2.077-2.99 1.683-3.598 1.175-4.112 .666-4.626 .058-5.03-.648-5.325-1.356-5.62-2.142-5.767-3.006-5.767-3.871-5.767-4.654-5.62-5.356-5.325-6.057-5.03-6.655-4.626-7.148-4.112-7.642-3.598-8.021-2.99-8.285-2.289-8.549-1.587-8.682-.824-8.682 0-8.682 .824-8.542 1.589-8.262 2.296-7.983 3.003-7.591 3.613-7.087 4.127-6.584 4.641-5.976 5.045-5.264 5.34-4.552 5.635-3.764 5.783-2.899 5.783-2.035 5.783-1.254 5.635-.557 5.34 .139 5.045 .735 4.641 1.228 4.127 1.721 3.613 2.103 3.003 2.372 2.296 2.642 1.589 2.777 .824 2.777 0" fill="#013770"/>
<path transform="matrix(1,0,0,-1,139.0055,16.102097)" d="M0 0-6.744 6.057V.214H-9.337V11.55L-8.987 11.611-2.334 5.6V11.397H.259V.046Z" fill="#013770"/>
<path transform="matrix(1,0,0,-1,148.1512,8.274796)" d="M0 0C0 .325-.059 .643-.176 .954-.293 1.264-.471 1.536-.71 1.77-.949 2.004-1.244 2.192-1.594 2.335-1.946 2.477-2.35 2.548-2.808 2.548-3.072 2.548-3.342 2.54-3.616 2.525-3.891 2.51-4.13 2.477-4.333 2.426V-2.563C-4.14-2.584-3.921-2.604-3.677-2.624-3.433-2.645-3.204-2.655-2.991-2.655-2.472-2.655-2.024-2.584-1.648-2.441-1.272-2.299-.962-2.108-.717-1.869-.473-1.63-.293-1.35-.176-1.03-.059-.709 0-.366 0 0M1.312 .092C1.312-.468 1.213-.982 1.015-1.449 .816-1.917 .528-2.319 .153-2.655-.224-2.991-.682-3.253-1.221-3.441-1.76-3.629-2.375-3.723-3.067-3.723-3.26-3.723-3.471-3.718-3.7-3.708-3.929-3.698-4.14-3.682-4.333-3.662V-7.614H-5.554V3.464C-5.137 3.514-4.72 3.558-4.303 3.593-3.886 3.629-3.448 3.647-2.991 3.647-2.269 3.647-1.638 3.55-1.099 3.357-.56 3.163-.112 2.904 .244 2.579 .6 2.253 .867 1.877 1.045 1.45 1.223 1.022 1.312 .57 1.312 .092" fill="#013770"/>
<path transform="matrix(1,0,0,-1,160.4487,10.303993)" d="M0 0C0 .661-.104 1.276-.313 1.846-.521 2.416-.814 2.912-1.19 3.334-1.567 3.756-2.014 4.087-2.533 4.326-3.052 4.564-3.621 4.684-4.242 4.684-4.862 4.684-5.434 4.564-5.958 4.326-6.482 4.087-6.932 3.756-7.308 3.334-7.685 2.912-7.978 2.416-8.186 1.846-8.394 1.276-8.499 .661-8.499 0-8.499-.661-8.394-1.277-8.186-1.846-7.978-2.416-7.685-2.912-7.308-3.334-6.932-3.756-6.482-4.087-5.958-4.326-5.434-4.565-4.862-4.684-4.242-4.684-3.621-4.684-3.052-4.565-2.533-4.326-2.014-4.087-1.567-3.756-1.19-3.334-.814-2.912-.521-2.416-.313-1.846-.104-1.277 0-.661 0 0M1.328 0C1.328-.834 1.175-1.605 .87-2.312 .565-3.019 .155-3.629-.358-4.143-.872-4.656-1.47-5.056-2.151-5.34-2.833-5.625-3.55-5.768-4.303-5.768-5.056-5.768-5.768-5.625-6.439-5.34-7.11-5.056-7.698-4.656-8.201-4.143-8.704-3.629-9.101-3.019-9.391-2.312-9.681-1.605-9.826-.834-9.826 0-9.826 .844-9.673 1.62-9.368 2.327-9.063 3.034-8.654 3.641-8.14 4.15-7.626 4.659-7.029 5.058-6.347 5.348-5.666 5.638-4.949 5.783-4.196 5.783-3.443 5.783-2.731 5.638-2.06 5.348-1.388 5.058-.801 4.659-.298 4.15 .206 3.641 .603 3.034 .893 2.327 1.183 1.62 1.328 .844 1.328 0" fill="#013770"/>
<path transform="matrix(1,0,0,-1,169.222,8.061096)" d="M0 0C0 .325-.061 .631-.183 .915-.305 1.2-.483 1.447-.717 1.656-.951 1.864-1.244 2.029-1.594 2.151-1.945 2.273-2.35 2.335-2.807 2.335-3.072 2.335-3.344 2.327-3.624 2.312-3.904 2.296-4.145 2.263-4.349 2.212V-2.334C-4.165-2.355-3.947-2.373-3.692-2.388-3.438-2.403-3.204-2.411-2.991-2.411-1.943-2.411-1.183-2.192-.71-1.755-.236-1.317 0-.732 0 0M.641-7.827-2.334-3.418C-2.456-3.428-2.579-3.436-2.701-3.441-2.823-3.446-2.95-3.448-3.082-3.448-3.265-3.448-3.477-3.446-3.715-3.441-3.955-3.436-4.165-3.428-4.349-3.418V-7.827H-5.569V3.25C-5.152 3.301-4.735 3.344-4.318 3.38-3.901 3.415-3.459 3.433-2.991 3.433-2.268 3.433-1.638 3.349-1.099 3.181-.559 3.013-.112 2.779 .244 2.479 .6 2.179 .867 1.823 1.045 1.411 1.223 .999 1.312 .554 1.312 .076 1.312-.707 1.103-1.378 .687-1.938 .269-2.497-.336-2.904-1.129-3.158L2.121-7.827Z" fill="#013770"/>
<path transform="matrix(1,0,0,-1,176.5763,5.8028948)" d="M0 0V-10.086H-1.221V0H-4.959V1.099H3.723V0Z" fill="#013770"/>
<path transform="matrix(1,0,0,-1,187.5618,12.8673939)" d="M0 0C0-.458-.086-.88-.259-1.266-.432-1.653-.671-1.991-.977-2.281-1.282-2.571-1.643-2.797-2.06-2.96-2.477-3.123-2.929-3.204-3.418-3.204-4.059-3.204-4.636-3.113-5.15-2.93-5.663-2.746-6.164-2.492-6.652-2.167L-6.057-1.099C-5.63-1.404-5.183-1.645-4.715-1.823-4.247-2.001-3.794-2.09-3.357-2.09-3.001-2.09-2.691-2.037-2.426-1.93-2.162-1.823-1.943-1.678-1.77-1.495-1.597-1.312-1.467-1.104-1.381-.87-1.295-.636-1.251-.392-1.251-.137-1.251 .107-1.282 .33-1.343 .534-1.404 .737-1.513 .931-1.671 1.114-1.828 1.297-2.052 1.477-2.342 1.655-2.632 1.833-3.006 2.024-3.464 2.228-3.952 2.441-4.364 2.657-4.699 2.876-5.035 3.095-5.308 3.329-5.516 3.578-5.724 3.827-5.877 4.092-5.974 4.371-6.07 4.651-6.118 4.959-6.118 5.295-6.118 5.701-6.037 6.088-5.874 6.454-5.712 6.82-5.48 7.143-5.18 7.423-4.88 7.703-4.519 7.927-4.097 8.094-3.675 8.262-3.209 8.346-2.701 8.346-2.223 8.346-1.77 8.275-1.343 8.132-.916 7.99-.539 7.807-.214 7.583L-.763 6.546C-1.037 6.749-1.351 6.914-1.701 7.042-2.052 7.169-2.411 7.232-2.777 7.232-3.123 7.232-3.431 7.181-3.7 7.08-3.97 6.978-4.191 6.843-4.364 6.675-4.537 6.508-4.669 6.309-4.76 6.08-4.852 5.851-4.898 5.61-4.898 5.356-4.898 4.969-4.753 4.613-4.463 4.287-4.173 3.962-3.682 3.641-2.991 3.326-2.411 3.062-1.928 2.81-1.541 2.571-1.155 2.332-.847 2.085-.618 1.831-.389 1.577-.229 1.302-.137 1.007-.046 .712 0 .376 0 0" fill="#013770"/>
<path transform="matrix(1,0,0,-1,37.669,6.5402987)" d="M0 0-37.669-22.065V-32.113L0-10.048Z" fill="#ffffff"/>
<path transform="matrix(1,0,0,-1,37.669,16.588295)" d="M0 0-37.669-22.065V-33.024H0Z" fill="#013770"/>
<path transform="matrix(1,0,0,-1,37.669,0)" d="M0 0H-37.669V-28.605L0-6.54Z" fill="#00a6e2"/>
</g>
</g>
<g inkscape:groupmode="layer" inkscape:label="BU">
<path transform="matrix(1,0,0,-1,58.3387,44.164098)" d="M0 0V8.077H-7.748V0H-12.418V20.138H-7.748V12.253H0V20.138H4.67V0Z" fill="#013770"/>
<g clip-path="url(#clip_3)">
<path transform="matrix(1,0,0,-1,83.5585,35.977598)" d="M0 0C0-2.802-.76-4.922-2.28-6.359-3.801-7.798-5.916-8.517-8.626-8.517-11.355-8.517-13.443-7.802-14.89-6.373-16.337-4.944-17.061-2.82-17.061 0V11.951H-12.39V.33C-12.39-1.099-12.079-2.221-11.456-3.035-10.833-3.851-9.854-4.258-8.517-4.258-7.198-4.258-6.227-3.851-5.604-3.035-4.982-2.221-4.67-1.099-4.67 .33V11.951H0Z" fill="#013770"/>
<path transform="matrix(1,0,0,-1,96.1962,28.312497)" d="M0 0V-15.852H-4.67V0H-10.714V4.286H6.044V0Z" fill="#013770"/>
<path transform="matrix(1,0,0,-1,120.70151,42.625997)" d="M0 0C-.879-.586-1.891-1.044-3.036-1.373-4.181-1.703-5.33-1.868-6.483-1.868-8.132-1.868-9.629-1.606-10.976-1.085-12.322-.562-13.48 .16-14.451 1.086-15.422 2.01-16.172 3.109-16.704 4.383-17.235 5.655-17.5 7.033-17.5 8.517-17.5 10.019-17.235 11.406-16.704 12.68-16.172 13.952-15.422 15.051-14.451 15.976-13.48 16.901-12.322 17.625-10.976 18.146-9.629 18.668-8.132 18.929-6.483 18.929-5.312 18.929-4.199 18.769-3.146 18.449-2.093 18.128-1.108 17.702-.192 17.171L-1.621 13.215C-2.372 13.636-3.155 13.966-3.97 14.204-4.785 14.441-5.604 14.562-6.429 14.562-7.363 14.562-8.21 14.424-8.97 14.149-9.73 13.874-10.371 13.476-10.893 12.954-11.415 12.432-11.818 11.795-12.102 11.045-12.386 10.293-12.528 9.451-12.528 8.517-12.528 7.583-12.386 6.745-12.102 6.003-11.818 5.262-11.415 4.63-10.893 4.107-10.371 3.586-9.73 3.183-8.97 2.898-8.21 2.614-7.363 2.473-6.429 2.473-5.604 2.473-4.753 2.601-3.874 2.857-2.995 3.114-2.17 3.48-1.401 3.956Z" fill="#013770"/>
<path transform="matrix(1,0,0,-1,135.5091,44.164098)" d="M0 0V8.077H-7.748V0H-12.418V20.138H-7.748V12.253H0V20.138H4.67V0Z" fill="#013770"/>
<path transform="matrix(1,0,0,-1,-37.3844,87.2812)" d="M181.41 63.255H186.08V43.117H181.41Z" fill="#013770"/>
<path transform="matrix(1,0,0,-1,164.9877,38.229497)" d="M0 0C0-.807-.147-1.585-.439-2.336-.733-3.087-1.177-3.755-1.772-4.341-2.367-4.928-3.114-5.395-4.011-5.742-4.909-6.09-5.961-6.265-7.17-6.265-7.738-6.265-8.329-6.209-8.942-6.1-9.556-5.989-10.161-5.843-10.756-5.66-11.351-5.477-11.923-5.262-12.473-5.015-13.022-4.767-13.517-4.497-13.956-4.204L-12.665 .027C-11.841-.56-10.934-1.03-9.945-1.388-8.956-1.745-7.986-1.924-7.033-1.924-6.209-1.924-5.623-1.754-5.275-1.415-4.927-1.076-4.753-.66-4.753-.165-4.753 .091-4.794 .334-4.876 .562-4.959 .792-5.133 1.025-5.398 1.264-5.664 1.501-6.03 1.744-6.498 1.991-6.964 2.238-7.583 2.518-8.352 2.829-9.231 3.195-9.978 3.594-10.591 4.024-11.205 4.454-11.699 4.917-12.074 5.412-12.45 5.906-12.72 6.433-12.885 6.991-13.05 7.55-13.132 8.132-13.132 8.736-13.132 9.469-12.981 10.183-12.679 10.879-12.376 11.575-11.933 12.193-11.346 12.733-10.76 13.273-10.023 13.708-9.135 14.039-8.247 14.368-7.216 14.533-6.044 14.533-5.495 14.533-4.95 14.487-4.41 14.396-3.87 14.304-3.352 14.185-2.857 14.039-2.363 13.892-1.905 13.727-1.483 13.544-1.062 13.36-.705 13.168-.412 12.967L-1.593 8.791C-1.887 8.992-2.216 9.189-2.583 9.382-2.949 9.574-3.329 9.748-3.723 9.903-4.117 10.06-4.51 10.188-4.904 10.288-5.298 10.389-5.678 10.439-6.044 10.439-6.905 10.439-7.519 10.274-7.885 9.945-8.251 9.615-8.434 9.239-8.434 8.818-8.434 8.489-8.37 8.205-8.242 7.967-8.114 7.729-7.903 7.509-7.61 7.308-7.317 7.105-6.946 6.904-6.498 6.703-6.049 6.501-5.513 6.264-4.89 5.988-3.956 5.586-3.173 5.169-2.542 4.738-1.909 4.309-1.406 3.851-1.03 3.365-.655 2.88-.389 2.357-.233 1.799-.078 1.24 0 .641 0 0" fill="#013770"/>
<path transform="matrix(1,0,0,-1,182.514,34.109399)" d="M0 0C0 .916-.127 1.754-.383 2.515-.641 3.274-1.002 3.929-1.469 4.479-1.936 5.028-2.494 5.458-3.145 5.77-3.795 6.081-4.523 6.237-5.328 6.237-6.117 6.237-6.84 6.081-7.499 5.77-8.159 5.458-8.722 5.028-9.188 4.479-9.656 3.929-10.018 3.274-10.274 2.515-10.531 1.754-10.659 .916-10.659 0-10.659-.897-10.531-1.726-10.274-2.486-10.018-3.246-9.656-3.905-9.188-4.464-8.722-5.022-8.159-5.458-7.499-5.769-6.84-6.08-6.117-6.236-5.328-6.236-4.523-6.236-3.795-6.08-3.145-5.769-2.494-5.458-1.936-5.022-1.469-4.464-1.002-3.905-.641-3.246-.383-2.486-.127-1.726 0-.897 0 0M5.002 0C5.002-1.483 4.75-2.856 4.246-4.12 3.742-5.384 3.031-6.479 2.117-7.403 1.201-8.328 .105-9.057-1.166-9.588-2.439-10.118-3.855-10.385-5.412-10.385-6.969-10.385-8.378-10.118-9.642-9.588-10.906-9.057-11.982-8.328-12.87-7.403-13.759-6.479-14.441-5.384-14.917-4.12-15.393-2.856-15.631-1.483-15.631 0-15.631 1.484-15.379 2.862-14.875 4.135-14.372 5.408-13.667 6.507-12.76 7.432-11.854 8.356-10.759 9.084-9.477 9.616-8.195 10.147-6.775 10.413-5.219 10.413-3.662 10.413-2.256 10.147-1.002 9.616 .252 9.084 1.324 8.356 2.213 7.432 3.102 6.507 3.787 5.408 4.273 4.135 4.758 2.862 5.002 1.484 5.002 0" fill="#013770"/>
<path transform="matrix(1,0,0,-1,207.35,44.548898)" d="M0 0-12.143 10.907V.385H-16.812V20.797L-16.181 20.907-4.203 10.083V20.522H.468V.083Z" fill="#013770"/>
<path transform="matrix(1,0,0,-1,218.1195,44.164098)" d="M0 0V20.138H4.67V4.259H12.747V0Z" fill="#013770"/>
<path transform="matrix(1,0,0,-1,247.81671,34.109399)" d="M0 0C0 .916-.128 1.754-.384 2.515-.641 3.274-1.002 3.929-1.47 4.479-1.937 5.028-2.495 5.458-3.146 5.77-3.796 6.081-4.523 6.237-5.329 6.237-6.117 6.237-6.84 6.081-7.5 5.77-8.159 5.458-8.722 5.028-9.189 4.479-9.656 3.929-10.019 3.274-10.274 2.515-10.531 1.754-10.659 .916-10.659 0-10.659-.897-10.531-1.726-10.274-2.486-10.019-3.246-9.656-3.905-9.189-4.464-8.722-5.022-8.159-5.458-7.5-5.769-6.84-6.08-6.117-6.236-5.329-6.236-4.523-6.236-3.796-6.08-3.146-5.769-2.495-5.458-1.937-5.022-1.47-4.464-1.002-3.905-.641-3.246-.384-2.486-.128-1.726 0-.897 0 0M5.001 0C5.001-1.483 4.749-2.856 4.245-4.12 3.741-5.384 3.031-6.479 2.116-7.403 1.2-8.328 .105-9.057-1.167-9.588-2.44-10.118-3.855-10.385-5.412-10.385-6.969-10.385-8.379-10.118-9.643-9.588-10.906-9.057-11.982-8.328-12.87-7.403-13.759-6.479-14.441-5.384-14.917-4.12-15.394-2.856-15.632-1.483-15.632 0-15.632 1.484-15.38 2.862-14.876 4.135-14.372 5.408-13.667 6.507-12.761 7.432-11.854 8.356-10.76 9.084-9.478 9.616-8.196 10.147-6.776 10.413-5.22 10.413-3.663 10.413-2.257 10.147-1.002 9.616 .252 9.084 1.323 8.356 2.212 7.432 3.101 6.507 3.787 5.408 4.272 4.135 4.758 2.862 5.001 1.484 5.001 0" fill="#013770"/>
<path transform="matrix(1,0,0,-1,273.3675,32.844797)" d="M0 0V-9.616C-1.117-10.258-2.285-10.756-3.503-11.113-4.721-11.471-6.099-11.649-7.638-11.649-9.121-11.649-10.504-11.397-11.786-10.894-13.068-10.39-14.186-9.681-15.138-8.765-16.09-7.849-16.841-6.755-17.391-5.481-17.939-4.209-18.215-2.803-18.215-1.265-18.215 .274-17.936 1.685-17.377 2.967-16.818 4.248-16.054 5.348-15.083 6.264-14.112 7.179-12.967 7.889-11.648 8.393-10.33 8.896-8.911 9.148-7.391 9.148-6.071 9.148-4.867 8.992-3.777 8.681-2.688 8.37-1.64 7.948-.632 7.417L-2.583 3.653C-4.029 4.404-5.531 4.78-7.088 4.78-8.096 4.78-8.979 4.633-9.739 4.341-10.499 4.047-11.141 3.63-11.662 3.09-12.185 2.55-12.578 1.909-12.844 1.167-13.109 .426-13.242-.385-13.242-1.265-13.242-2.217-13.091-3.082-12.789-3.86-12.486-4.639-12.07-5.294-11.539-5.825-11.008-6.356-10.385-6.769-9.671-7.061-8.956-7.354-8.187-7.501-7.363-7.501-6.612-7.501-6.021-7.459-5.591-7.377-5.161-7.295-4.763-7.153-4.396-6.951V-3.984H-8.435V0Z" fill="#013770"/>
<path transform="matrix(1,0,0,-1,-37.3844,87.2812)" d="M313.965 63.255H318.636V43.117H313.965Z" fill="#013770"/>
<path transform="matrix(1,0,0,-1,297.5423,38.229497)" d="M0 0C0-.807-.146-1.585-.439-2.336-.732-3.087-1.177-3.755-1.771-4.341-2.367-4.928-3.113-5.395-4.011-5.742-4.908-6.09-5.961-6.265-7.17-6.265-7.738-6.265-8.328-6.209-8.942-6.1-9.556-5.989-10.16-5.843-10.755-5.66-11.351-5.477-11.923-5.262-12.473-5.015-13.021-4.767-13.517-4.497-13.956-4.204L-12.664 .027C-11.841-.56-10.934-1.03-9.944-1.388-8.956-1.745-7.985-1.924-7.032-1.924-6.208-1.924-5.622-1.754-5.274-1.415-4.927-1.076-4.752-.66-4.752-.165-4.752 .091-4.794 .334-4.876 .562-4.958 .792-5.133 1.025-5.398 1.264-5.664 1.501-6.03 1.744-6.497 1.991-6.964 2.238-7.582 2.518-8.352 2.829-9.23 3.195-9.977 3.594-10.59 4.024-11.204 4.454-11.698 4.917-12.074 5.412-12.449 5.906-12.72 6.433-12.885 6.991-13.049 7.55-13.132 8.132-13.132 8.736-13.132 9.469-12.98 10.183-12.679 10.879-12.376 11.575-11.933 12.193-11.346 12.733-10.76 13.273-10.022 13.708-9.134 14.039-8.246 14.368-7.216 14.533-6.044 14.533-5.494 14.533-4.949 14.487-4.409 14.396-3.869 14.304-3.352 14.185-2.856 14.039-2.362 13.892-1.904 13.727-1.483 13.544-1.062 13.36-.705 13.168-.412 12.967L-1.593 8.791C-1.886 8.992-2.216 9.189-2.582 9.382-2.948 9.574-3.328 9.748-3.722 9.903-4.116 10.06-4.51 10.188-4.903 10.288-5.298 10.389-5.678 10.439-6.044 10.439-6.904 10.439-7.519 10.274-7.884 9.945-8.251 9.615-8.434 9.239-8.434 8.818-8.434 8.489-8.37 8.205-8.241 7.967-8.113 7.729-7.902 7.509-7.609 7.308-7.316 7.105-6.946 6.904-6.497 6.703-6.048 6.501-5.513 6.264-4.89 5.988-3.956 5.586-3.173 5.169-2.541 4.738-1.909 4.309-1.405 3.851-1.029 3.365-.654 2.88-.389 2.357-.233 1.799-.078 1.24 0 .641 0 0" fill="#013770"/>
<path transform="matrix(1,0,0,-1,309.3285,28.312497)" d="M0 0V-15.852H-4.671V0H-10.715V4.286H6.044V0Z" fill="#013770"/>
<path transform="matrix(1,0,0,-1,-37.3844,87.2812)" d="M355.091 63.255H359.762V43.117H355.091Z" fill="#013770"/>
<path transform="matrix(1,0,0,-1,343.0365,42.625997)" d="M0 0C-.879-.586-1.891-1.044-3.035-1.373-4.18-1.703-5.329-1.868-6.483-1.868-8.132-1.868-9.629-1.606-10.975-1.085-12.321-.562-13.479 .16-14.45 1.086-15.421 2.01-16.172 3.109-16.703 4.383-17.234 5.655-17.5 7.033-17.5 8.517-17.5 10.019-17.234 11.406-16.703 12.68-16.172 13.952-15.421 15.051-14.45 15.976-13.479 16.901-12.321 17.625-10.975 18.146-9.629 18.668-8.132 18.929-6.483 18.929-5.312 18.929-4.198 18.769-3.146 18.449-2.092 18.128-1.107 17.702-.191 17.171L-1.62 13.215C-2.372 13.636-3.154 13.966-3.97 14.204-4.784 14.441-5.604 14.562-6.428 14.562-7.362 14.562-8.21 14.424-8.97 14.149-9.729 13.874-10.37 13.476-10.893 12.954-11.414 12.432-11.817 11.795-12.102 11.045-12.386 10.293-12.527 9.451-12.527 8.517-12.527 7.583-12.386 6.745-12.102 6.003-11.817 5.262-11.414 4.63-10.893 4.107-10.37 3.586-9.729 3.183-8.97 2.898-8.21 2.614-7.362 2.473-6.428 2.473-5.604 2.473-4.752 2.601-3.873 2.857-2.994 3.114-2.17 3.48-1.4 3.956Z" fill="#013770"/>
<path transform="matrix(1,0,0,-1,357.8724,38.229497)" d="M0 0C0-.807-.146-1.585-.439-2.336-.732-3.087-1.177-3.755-1.771-4.341-2.367-4.928-3.113-5.395-4.011-5.742-4.908-6.09-5.961-6.265-7.17-6.265-7.738-6.265-8.328-6.209-8.942-6.1-9.556-5.989-10.16-5.843-10.755-5.66-11.351-5.477-11.923-5.262-12.473-5.015-13.021-4.767-13.517-4.497-13.956-4.204L-12.664 .027C-11.841-.56-10.934-1.03-9.944-1.388-8.956-1.745-7.985-1.924-7.032-1.924-6.208-1.924-5.622-1.754-5.274-1.415-4.927-1.076-4.752-.66-4.752-.165-4.752 .091-4.794 .334-4.876 .562-4.958 .792-5.133 1.025-5.398 1.264-5.664 1.501-6.03 1.744-6.497 1.991-6.964 2.238-7.582 2.518-8.352 2.829-9.23 3.195-9.977 3.594-10.59 4.024-11.204 4.454-11.698 4.917-12.074 5.412-12.449 5.906-12.72 6.433-12.885 6.991-13.049 7.55-13.132 8.132-13.132 8.736-13.132 9.469-12.98 10.183-12.679 10.879-12.376 11.575-11.933 12.193-11.346 12.733-10.76 13.273-10.022 13.708-9.134 14.039-8.246 14.368-7.216 14.533-6.044 14.533-5.494 14.533-4.949 14.487-4.409 14.396-3.869 14.304-3.352 14.185-2.856 14.039-2.362 13.892-1.904 13.727-1.483 13.544-1.062 13.36-.705 13.168-.412 12.967L-1.593 8.791C-1.886 8.992-2.216 9.189-2.582 9.382-2.948 9.574-3.328 9.748-3.722 9.903-4.116 10.06-4.51 10.188-4.903 10.288-5.298 10.389-5.678 10.439-6.044 10.439-6.904 10.439-7.519 10.274-7.884 9.945-8.251 9.615-8.434 9.239-8.434 8.818-8.434 8.489-8.37 8.205-8.241 7.967-8.113 7.729-7.902 7.509-7.609 7.308-7.316 7.105-6.946 6.904-6.497 6.703-6.048 6.501-5.513 6.264-4.89 5.988-3.956 5.586-3.173 5.169-2.541 4.738-1.909 4.309-1.405 3.851-1.029 3.365-.654 2.88-.389 2.357-.233 1.799-.078 1.24 0 .641 0 0" fill="#013770"/>
</g>
</g>
</g>
</svg>
