<svg viewBox="0 0 189.013 49.996" xmlns="http://www.w3.org/2000/svg" xmlns:xlink="http://www.w3.org/1999/xlink" xmlns:inkscape="http://www.inkscape.org/namespaces/inkscape" version="1.1">
<defs>
<clipPath id="clip_1">
<path transform="matrix(1,0,0,-1,-278.6583,322.0555)" d="M278.6583 272.05973H467.6715V322.0555H278.6583Z" clip-rule="evenodd"/>
</clipPath>
<clipPath id="clip_2">
<path transform="matrix(1,0,0,-1,-278.6583,322.0555)" d="M0 595.28H841.89V0H0Z"/>
</clipPath>
</defs>
<g clip-path="url(#clip_1)">
<g inkscape:groupmode="layer" inkscape:label="Layer 1">
<path transform="matrix(1,0,0,-1,37.961,6.5910036)" d="M0 0-37.961-22.236V-32.361L0-10.126Z" fill="#ffffff"/>
<path transform="matrix(1,0,0,-1,37.961,16.716797)" d="M0 0-37.961-22.236V-33.279H0Z" fill="#002e6d"/>
<path transform="matrix(1,0,0,-1,37.961,0)" d="M0 0H-37.961V-28.827L0-6.591Z" fill="#009bde"/>
<path transform="matrix(1,0,0,-1,53.193819,16.010102)" d="M0 0V4.52H-4.336V0H-6.95V11.27H-4.336V6.858H0V11.27H2.614V0Z" fill="#002e6d"/>
<g clip-path="url(#clip_2)">
<path transform="matrix(1,0,0,-1,67.5394,11.428223)" d="M0 0C0-1.568-.425-2.755-1.276-3.559-2.127-4.364-3.311-4.766-4.828-4.766-6.355-4.766-7.524-4.367-8.334-3.567-9.144-2.768-9.548-1.579-9.548 0V6.688H-6.935V.185C-6.935-.615-6.76-1.243-6.412-1.699-6.063-2.155-5.515-2.383-4.767-2.383-4.029-2.383-3.485-2.155-3.137-1.699-2.788-1.243-2.614-.615-2.614 .185V6.688H0Z" fill="#002e6d"/>
<path transform="matrix(1,0,0,-1,74.99631,7.1383059)" d="M0 0V-8.872H-2.614V0H-5.997V2.399H3.383V0Z" fill="#002e6d"/>
<path transform="matrix(1,0,0,-1,88.8649,15.149109)" d="M0 0C-.492-.328-1.058-.584-1.699-.769-2.34-.953-2.983-1.046-3.629-1.046-4.551-1.046-5.389-.899-6.143-.607-6.896-.315-7.544 .09-8.087 .607-8.631 1.125-9.051 1.74-9.348 2.452-9.646 3.165-9.794 3.936-9.794 4.766-9.794 5.607-9.646 6.383-9.348 7.096-9.051 7.808-8.631 8.423-8.087 8.941-7.544 9.458-6.896 9.863-6.143 10.156-5.389 10.448-4.551 10.594-3.629 10.594-2.973 10.594-2.35 10.504-1.76 10.325-1.171 10.145-.62 9.907-.107 9.61L-.907 7.396C-1.328 7.631-1.766 7.816-2.222 7.949-2.678 8.082-3.136 8.149-3.598 8.149-4.121 8.149-4.595 8.072-5.02 7.918-5.445 7.765-5.804 7.542-6.096 7.25-6.388 6.957-6.614 6.601-6.773 6.181-6.932 5.761-7.011 5.289-7.011 4.766-7.011 4.244-6.932 3.775-6.773 3.36-6.614 2.944-6.388 2.591-6.096 2.299-5.804 2.007-5.445 1.781-5.02 1.622-4.595 1.463-4.121 1.384-3.598 1.384-3.136 1.384-2.66 1.455-2.168 1.599-1.676 1.743-1.214 1.947-.784 2.214Z" fill="#002e6d"/>
<path transform="matrix(1,0,0,-1,97.84451,16.010102)" d="M0 0V4.52H-4.336V0H-6.95V11.27H-4.336V6.858H0V11.27H2.614V0Z" fill="#002e6d"/>
<path transform="matrix(1,0,0,-1,-278.6583,322.0555)" d="M381.869 317.316H384.483V306.04603H381.869Z" fill="#002e6d"/>
<path transform="matrix(1,0,0,-1,115.634,12.689026)" d="M0 0C0-.451-.082-.887-.246-1.307-.41-1.727-.659-2.101-.992-2.429-1.325-2.758-1.743-3.019-2.245-3.214-2.747-3.408-3.337-3.506-4.013-3.506-4.331-3.506-4.661-3.475-5.005-3.413-5.348-3.352-5.687-3.27-6.02-3.167-6.353-3.065-6.673-2.944-6.981-2.806-7.288-2.668-7.565-2.517-7.811-2.353L-7.088 .015C-6.627-.313-6.12-.577-5.566-.776-5.013-.976-4.469-1.076-3.936-1.076-3.475-1.076-3.147-.982-2.952-.792-2.758-.602-2.66-.369-2.66-.092-2.66 .051-2.683 .187-2.729 .315-2.775 .443-2.873 .574-3.022 .707-3.17 .84-3.375 .976-3.637 1.115-3.898 1.253-4.244 1.409-4.674 1.584-5.166 1.789-5.584 2.012-5.927 2.253-6.271 2.493-6.548 2.752-6.758 3.029-6.968 3.306-7.119 3.6-7.211 3.913-7.303 4.226-7.35 4.551-7.35 4.889-7.35 5.299-7.265 5.699-7.096 6.089-6.927 6.478-6.678 6.824-6.35 7.127-6.022 7.429-5.61 7.672-5.112 7.857-4.616 8.041-4.039 8.134-3.383 8.134-3.075 8.134-2.77 8.108-2.468 8.057-2.166 8.005-1.876 7.939-1.599 7.857-1.322 7.775-1.066 7.683-.83 7.58-.595 7.478-.395 7.37-.231 7.257L-.892 4.92C-1.056 5.033-1.24 5.143-1.445 5.251-1.651 5.358-1.863 5.456-2.083 5.543-2.304 5.63-2.524 5.702-2.745 5.758-2.965 5.814-3.178 5.843-3.383 5.843-3.865 5.843-4.208 5.75-4.413 5.566-4.618 5.382-4.72 5.171-4.72 4.936-4.72 4.751-4.685 4.592-4.613 4.459-4.541 4.326-4.423 4.203-4.259 4.09-4.095 3.977-3.888 3.864-3.637 3.752-3.385 3.639-3.086 3.506-2.737 3.352-2.214 3.126-1.776 2.893-1.422 2.652-1.069 2.411-.787 2.155-.577 1.883-.367 1.612-.218 1.32-.131 1.007-.044 .694 0 .359 0 0" fill="#002e6d"/>
<path transform="matrix(1,0,0,-1,125.88962,10.382599)" d="M0 0C0 .512-.072 .981-.215 1.407-.359 1.832-.561 2.199-.823 2.506-1.084 2.814-1.397 3.054-1.76 3.229-2.125 3.403-2.532 3.49-2.983 3.49-3.424 3.49-3.829 3.403-4.198 3.229-4.567 3.054-4.882 2.814-5.143 2.506-5.405 2.199-5.607 1.832-5.751 1.407-5.894 .981-5.966 .512-5.966 0-5.966-.502-5.894-.966-5.751-1.392-5.607-1.817-5.405-2.186-5.143-2.499-4.882-2.811-4.567-3.055-4.198-3.229-3.829-3.403-3.424-3.49-2.983-3.49-2.532-3.49-2.125-3.403-1.76-3.229-1.397-3.055-1.084-2.811-.823-2.499-.561-2.186-.359-1.817-.215-1.392-.072-.966 0-.502 0 0M2.798 0C2.798-.83 2.657-1.599 2.376-2.306 2.093-3.014 1.696-3.626 1.184-4.144 .671-4.662 .059-5.069-.653-5.366-1.366-5.663-2.158-5.812-3.029-5.812-3.901-5.812-4.69-5.663-5.397-5.366-6.104-5.069-6.707-4.662-7.204-4.144-7.701-3.626-8.083-3.014-8.349-2.306-8.616-1.599-8.749-.83-8.749 0-8.749 .83-8.608 1.602-8.326 2.314-8.044 3.026-7.65 3.641-7.142 4.159-6.635 4.677-6.022 5.084-5.305 5.382-4.587 5.679-3.793 5.827-2.922 5.827-2.05 5.827-1.264 5.679-.561 5.382 .141 5.084 .74 4.677 1.238 4.159 1.735 3.641 2.119 3.026 2.391 2.314 2.662 1.602 2.798 .83 2.798 0" fill="#002e6d"/>
<path transform="matrix(1,0,0,-1,140.081,16.225403)" d="M0 0-6.796 6.104V.215H-9.41V11.639L-9.056 11.701-2.352 5.643V11.486H.261V.046Z" fill="#002e6d"/>
<path transform="matrix(1,0,0,-1,149.2974,8.337524)" d="M0 0C0 .328-.059 .648-.177 .961-.295 1.274-.474 1.548-.715 1.784-.956 2.019-1.253 2.209-1.607 2.353-1.961 2.496-2.368 2.568-2.829 2.568-3.096 2.568-3.368 2.56-3.644 2.545-3.921 2.529-4.162 2.496-4.367 2.445V-2.583C-4.172-2.604-3.952-2.624-3.706-2.645-3.46-2.665-3.229-2.675-3.014-2.675-2.491-2.675-2.04-2.604-1.661-2.46-1.282-2.317-.969-2.124-.723-1.884-.477-1.643-.295-1.361-.177-1.038-.059-.715 0-.369 0 0M1.322 .092C1.322-.472 1.222-.989 1.022-1.461 .822-1.932 .533-2.337 .154-2.675-.226-3.014-.687-3.278-1.23-3.467-1.774-3.657-2.394-3.752-3.091-3.752-3.285-3.752-3.498-3.747-3.729-3.736-3.96-3.726-4.172-3.711-4.367-3.69V-7.673H-5.597V3.49C-5.177 3.542-4.757 3.585-4.336 3.621-3.916 3.657-3.475 3.675-3.014 3.675-2.286 3.675-1.651 3.577-1.107 3.383-.564 3.188-.113 2.927 .246 2.599 .604 2.27 .874 1.891 1.053 1.461 1.232 1.03 1.322 .574 1.322 .092" fill="#002e6d"/>
<path transform="matrix(1,0,0,-1,161.69022,10.382507)" d="M0 0C0 .666-.105 1.286-.315 1.861-.525 2.434-.82 2.934-1.199 3.36-1.579 3.785-2.029 4.118-2.552 4.359-3.075 4.6-3.649 4.72-4.274 4.72-4.9 4.72-5.476 4.6-6.004 4.359-6.532 4.118-6.986 3.785-7.365 3.36-7.744 2.934-8.039 2.434-8.249 1.861-8.46 1.286-8.564 .666-8.564 0-8.564-.666-8.46-1.287-8.249-1.861-8.039-2.435-7.744-2.934-7.365-3.36-6.986-3.785-6.532-4.118-6.004-4.359-5.476-4.6-4.9-4.72-4.274-4.72-3.649-4.72-3.075-4.6-2.552-4.359-2.029-4.118-1.579-3.785-1.199-3.36-.82-2.934-.525-2.435-.315-1.861-.105-1.287 0-.666 0 0M1.338 0C1.338-.841 1.184-1.617 .876-2.329 .569-3.042 .156-3.657-.361-4.175-.879-4.692-1.481-5.095-2.168-5.382-2.855-5.668-3.578-5.812-4.336-5.812-5.095-5.812-5.812-5.668-6.489-5.382-7.165-5.095-7.757-4.692-8.265-4.175-8.772-3.657-9.172-3.042-9.464-2.329-9.756-1.617-9.902-.841-9.902 0-9.902 .851-9.748 1.632-9.441 2.345-9.133 3.057-8.721 3.67-8.203 4.182-7.685 4.695-7.083 5.097-6.396 5.389-5.71 5.681-4.987 5.828-4.228 5.828-3.47 5.828-2.752 5.681-2.076 5.389-1.399 5.097-.807 4.695-.3 4.182 .208 3.67 .608 3.057 .9 2.345 1.192 1.632 1.338 .851 1.338 0" fill="#002e6d"/>
<path transform="matrix(1,0,0,-1,170.5314,8.122223)" d="M0 0C0 .328-.062 .635-.185 .923-.308 1.209-.487 1.458-.723 1.668-.959 1.878-1.253 2.045-1.607 2.168-1.96 2.291-2.368 2.353-2.829 2.353-3.096 2.353-3.37 2.345-3.652 2.329-3.934 2.314-4.177 2.281-4.382 2.229V-2.353C-4.198-2.373-3.977-2.391-3.721-2.406-3.465-2.422-3.229-2.429-3.014-2.429-1.958-2.429-1.192-2.209-.715-1.768-.238-1.328 0-.738 0 0M.646-7.888-2.352-3.444C-2.475-3.455-2.599-3.462-2.722-3.467-2.845-3.473-2.973-3.475-3.106-3.475-3.29-3.475-3.503-3.473-3.744-3.467-3.985-3.462-4.198-3.455-4.382-3.444V-7.888H-5.612V3.275C-5.192 3.326-4.772 3.37-4.352 3.406-3.931 3.442-3.485 3.46-3.014 3.46-2.286 3.46-1.651 3.375-1.107 3.206-.564 3.037-.113 2.801 .246 2.499 .605 2.196 .874 1.837 1.053 1.422 1.233 1.007 1.322 .559 1.322 .077 1.322-.713 1.112-1.389 .692-1.953 .271-2.517-.338-2.927-1.138-3.183L2.137-7.888Z" fill="#002e6d"/>
<path transform="matrix(1,0,0,-1,177.9426,5.8464968)" d="M0 0V-10.164H-1.23V0H-4.997V1.107H3.752V0Z" fill="#002e6d"/>
<path transform="matrix(1,0,0,-1,189.01322,12.965698)" d="M0 0C0-.461-.087-.887-.261-1.276-.436-1.666-.677-2.007-.984-2.299-1.292-2.591-1.656-2.819-2.076-2.983-2.496-3.147-2.952-3.229-3.444-3.229-4.09-3.229-4.672-3.137-5.19-2.952-5.707-2.768-6.212-2.512-6.704-2.183L-6.104-1.107C-5.674-1.415-5.223-1.658-4.751-1.837-4.28-2.017-3.824-2.107-3.383-2.107-3.024-2.107-2.712-2.053-2.445-1.945-2.178-1.837-1.958-1.691-1.784-1.507-1.61-1.322-1.479-1.112-1.392-.876-1.305-.641-1.261-.395-1.261-.138-1.261 .108-1.292 .333-1.353 .538-1.415 .743-1.525 .938-1.684 1.122-1.843 1.307-2.068 1.489-2.36 1.668-2.652 1.848-3.029 2.04-3.49 2.245-3.982 2.46-4.397 2.678-4.736 2.898-5.074 3.119-5.349 3.354-5.559 3.606-5.769 3.857-5.922 4.123-6.02 4.405-6.117 4.687-6.166 4.997-6.166 5.336-6.166 5.745-6.084 6.135-5.92 6.504-5.756 6.873-5.523 7.198-5.22 7.48-4.918 7.762-4.554 7.988-4.129 8.157-3.703 8.326-3.234 8.411-2.722 8.411-2.24 8.411-1.784 8.339-1.353 8.195-.923 8.052-.544 7.867-.215 7.642L-.769 6.596C-1.046 6.801-1.361 6.968-1.715 7.096-2.068 7.224-2.43 7.288-2.798 7.288-3.147 7.288-3.457 7.237-3.729 7.135-4 7.032-4.224 6.896-4.397 6.727-4.572 6.558-4.705 6.358-4.797 6.127-4.89 5.897-4.936 5.653-4.936 5.397-4.936 5.007-4.79 4.649-4.497 4.321-4.205 3.992-3.711 3.67-3.014 3.352-2.43 3.085-1.943 2.832-1.553 2.591-1.164 2.35-.853 2.101-.623 1.845-.392 1.589-.231 1.312-.138 1.015-.046 .717 0 .379 0 0" fill="#002e6d"/>
<path transform="matrix(1,0,0,-1,-278.6583,322.0555)" d="M325.068 298.114H329.78V277.794H325.068Z" fill="#002e6d"/>
<path transform="matrix(1,0,0,-1,72.5224,42.709108)" d="M0 0C-.887-.592-1.909-1.053-3.063-1.386-4.218-1.719-5.378-1.885-6.542-1.885-8.205-1.885-9.716-1.622-11.074-1.095-12.433-.568-13.602 .162-14.581 1.095-15.561 2.028-16.318 3.137-16.854 4.422-17.39 5.706-17.658 7.097-17.658 8.594-17.658 10.109-17.39 11.508-16.854 12.793-16.318 14.078-15.561 15.186-14.581 16.12-13.602 17.053-12.433 17.783-11.074 18.31-9.716 18.837-8.205 19.1-6.542 19.1-5.36 19.1-4.237 18.938-3.174 18.615-2.112 18.291-1.118 17.862-.194 17.326L-1.635 13.334C-2.393 13.759-3.183 14.091-4.006 14.332-4.828 14.572-5.655 14.692-6.487 14.692-7.429 14.692-8.284 14.554-9.051 14.276-9.818 13.999-10.465 13.597-10.991 13.071-11.518 12.544-11.925 11.902-12.211 11.144-12.498 10.386-12.641 9.536-12.641 8.594-12.641 7.651-12.498 6.806-12.211 6.057-11.925 5.309-11.518 4.671-10.991 4.144-10.465 3.618-9.818 3.211-9.051 2.925-8.284 2.638-7.429 2.495-6.487 2.495-5.655 2.495-4.796 2.624-3.909 2.883-3.021 3.142-2.19 3.511-1.414 3.992Z" fill="#002e6d"/>
<path transform="matrix(1,0,0,-1,83.68649,32.09201)" d="M0 0-2.024-4.879H1.996ZM5.018-12.169 3.493-8.482H-3.52L-5.045-12.169H-9.841L-.277 8.316H.36L9.924-12.169Z" fill="#002e6d"/>
<path transform="matrix(1,0,0,-1,101.18759,44.427614)" d="M0 0H-.554L-10.257 20.486H-4.851L-.222 9.508 4.408 20.486H9.702Z" fill="#002e6d"/>
<path transform="matrix(1,0,0,-1,114.2041,44.261415)" d="M0 0V20.32H12.863V15.995H4.713V12.364H12.142V8.261H4.713V4.297H12.863V0Z" fill="#002e6d"/>
</g>
</g>
</g>
</svg>
